<svg id="Capa_1" enable-background="new 0 0 512 512" height="512" viewBox="0 0 512 512" width="512" xmlns="http://www.w3.org/2000/svg"><g><path d="m161.312 317.636c6.072 5.725 11.321 12.136 15.578 19.035 27.705 6.641 50.979 25.637 63.105 52.487 2.859 6.33 9.141 10.42 16.005 10.42s13.147-4.09 16.005-10.42c12.125-26.85 35.4-45.845 63.105-52.487 4.254-6.894 9.5-13.302 15.567-19.025-22.043-29.424-57-47.459-94.681-47.459-37.678 0-72.64 18.027-94.684 47.449z"/><path d="m375.387 300.589c11.743-5.751 24.523-9.234 37.331-10.135-33.374-53.079-92.606-86.877-156.721-86.877-64.076 0-123.33 33.808-156.709 86.878 12.812.902 25.596 4.389 37.342 10.143 27.59-37.426 71.741-60.411 119.368-60.411 47.628 0 91.798 22.974 119.389 60.402z"/><path d="m74.476 273.453c15.07-23.813 34.747-44.512 58.223-60.992 36.238-25.438 78.874-38.884 123.297-38.884 44.501 0 87.198 13.489 123.474 39.008 23.403 16.463 43.014 37.121 58.044 60.873 10.376-8.666 21.95-15.314 34.72-19.946-45.407-71.487-125.274-118.936-216.234-118.936s-170.828 47.449-216.236 118.937c12.768 4.63 24.338 11.277 34.712 19.94z"/><path d="m435.516 322.325c-5.32-1.437-10.756-2.116-16.174-2.116-28.058 0-55.65 18.219-64.2 43.897-25.282.788-46.061 15.844-55.795 37.398-7.704 17.059-24.628 28.073-43.346 28.073s-35.642-11.013-43.346-28.073c-9.734-21.554-30.512-36.61-55.795-37.398-8.551-25.681-36.144-43.897-64.205-43.897-5.417 0-10.857.68-16.175 2.116-14.807-27.267-43.271-45.778-76.48-45.778v202.88h512v-202.88c-33.209 0-61.679 18.511-76.484 45.778z"/><path d="m331.375 85.472h30c0-12.626 10.272-22.899 22.899-22.899h14.351v-30h-14.351c-14.846 0-28.282 6.146-37.899 16.029-9.617-9.883-23.053-16.029-37.899-16.029h-14.351v30h14.351c12.626 0 22.899 10.273 22.899 22.899z"/><path d="m384.5 122.821h14.351c12.626 0 22.899 10.272 22.899 22.899h30c0-12.626 10.272-22.899 22.899-22.899h14.351v-30h-14.351c-14.846 0-28.282 6.146-37.899 16.029-9.617-9.883-23.053-16.029-37.899-16.029h-14.351z"/></g></svg>