<svg id="Capa_1" enable-background="new 0 0 512 512" height="512" viewBox="0 0 512 512" width="512" xmlns="http://www.w3.org/2000/svg"><g><path d="m361.5 18.343h30v30h-30z"/><path d="m361.5 167.093h30v30h-30z"/><path d="m435.875 92.718h30v30h-30z"/><path d="m287.125 92.718h30v30h-30z"/><path d="m308.909 40.127h30v30h-30z" transform="matrix(.707 -.707 .707 .707 55.89 245.185)"/><path d="m414.091 145.31h30v30h-30z" transform="matrix(.707 -.707 .707 .707 12.324 350.371)"/><path d="m414.091 40.127h30v30h-30z" transform="matrix(.707 -.707 .707 .707 86.694 319.556)"/><path d="m308.909 145.309h30v30h-30z" transform="matrix(.707 -.707 .707 .707 -18.486 275.988)"/><circle cx="376.5" cy="107.718" r="39.906"/><path d="m160.27 336.643c10.828-16.246 28.948-25.944 48.47-25.944s37.642 9.699 48.47 25.944l51.996 78.015h79.425l-156.383-234.638c-5.25-7.878-14.038-12.582-23.506-12.582s-18.255 4.704-23.506 12.582l-156.383 234.637h79.422z"/><path d="m492.003 414.657-106.114-159.213c-7.407-11.113-19.878-17.789-33.233-17.789s-25.827 6.676-33.234 17.789l-.426.64 105.687 158.573z"/><path d="m208.74 340.698c-9.468 0-18.255 4.704-23.507 12.583l-40.906 61.376h128.827l-40.907-61.376c-5.251-7.879-14.039-12.583-23.507-12.583z"/><path d="m0 444.657h512v49h-512z"/></g></svg>