<svg fill="#000000" xmlns="http://www.w3.org/2000/svg"  viewBox="0 0 48 48" width="24px" height="24px"><path d="M 11.5 7 C 8.4802259 7 6 9.4802259 6 12.5 L 6 31.476562 C 6 32.934359 6.5784179 34.334277 7.609375 35.365234 L 13.390625 41.148438 A 1.5005306 1.5005306 0 0 0 13.425781 41.179688 C 14.432944 42.293729 15.883249 43 17.5 43 L 31.058594 43 C 30.549594 42.503 30.188641 41.854953 30.056641 41.126953 L 29.851562 40 L 17.5 40 C 16.122 40 15 38.878 15 37.5 L 15 16 L 36.5 16 C 37.878 16 39 17.122 39 18.5 L 39 30.898438 L 42 33.232422 L 42 18.5 C 42 16.888719 41.29889 15.442325 40.191406 14.435547 A 1.5005306 1.5005306 0 0 0 40.148438 14.390625 L 34.365234 8.609375 C 33.333806 7.5779465 31.933733 7 30.476562 7 L 11.5 7 z M 11.5 10 L 30.476562 10 C 31.139394 10 31.775569 10.26385 32.244141 10.732422 L 34.511719 13 L 14.5 13 C 14.382479 13 14.26951 13.019372 14.15625 13.035156 L 11.230469 10.109375 C 11.33281 10.097037 11.393892 10 11.5 10 z M 9.109375 12.230469 L 12.035156 15.15625 C 12.019372 15.26951 12 15.382479 12 15.5 L 12 35.511719 L 9.7324219 33.244141 C 9.263379 32.775098 9 32.140767 9 31.476562 L 9 12.5 C 9 12.393892 9.097037 12.33281 9.109375 12.230469 z M 31.587891 28.001953 C 31.291141 27.984828 30.988156 28.056297 30.722656 28.216797 C 30.190656 28.538797 29.913391 29.155578 30.025391 29.767578 L 32.025391 40.767578 C 32.137391 41.384578 32.622234 41.868563 33.240234 41.976562 C 33.327234 41.993563 33.414 42 33.5 42 C 34.026 42 34.522922 41.723813 34.794922 41.257812 L 35.857422 39.441406 L 38.222656 43.285156 A 1.50015 1.50015 0 1 0 40.777344 41.714844 L 38.503906 38.019531 L 40.515625 38 C 41.153625 37.994 41.717875 37.583516 41.921875 36.978516 C 42.125875 36.373516 41.924875 35.708406 41.421875 35.316406 L 32.421875 28.316406 C 32.176375 28.125406 31.884641 28.019078 31.587891 28.001953 z"/></svg>