<svg fill="#000000" xmlns="http://www.w3.org/2000/svg"  viewBox="0 0 48 48" width="24px" height="24px"><path d="M 10.5 6 C 8.0356875 6 5.9454099 7.627676 5.2480469 9.8652344 C 5.2478641 9.86582 5.2482295 9.8666018 5.2480469 9.8671875 C 5.1410607 10.21088 5.0668503 10.568788 5.0292969 10.9375 C 5.0292309 10.938145 5.0293626 10.938808 5.0292969 10.939453 C 5.010616 11.123509 5 11.311094 5 11.5 L 5 13.5 L 5 36.5 C 5 39.533 7.467 42 10.5 42 L 23.589844 42 C 23.214844 41.437 23 40.770453 23 40.064453 L 23 39 L 10.5 39 C 9.122 39 8 37.878 8 36.5 L 8 15 L 40 15 L 40 22.683594 L 43 24.226562 L 43 13.5 L 43 11.5 C 43 11.309838 42.98965 11.122755 42.970703 10.9375 C 42.93315 10.568788 42.858939 10.21088 42.751953 9.8671875 C 42.751771 9.8666018 42.752136 9.86582 42.751953 9.8652344 C 42.644667 9.5209946 42.505466 9.1925601 42.335938 8.8808594 C 41.657945 7.6346085 40.510765 6.6775943 39.134766 6.2480469 C 39.134168 6.2478607 39.13341 6.2482328 39.132812 6.2480469 C 38.789218 6.140914 38.431076 6.0669919 38.0625 6.0292969 C 38.06186 6.0292317 38.061186 6.0293618 38.060547 6.0292969 C 37.875918 6.0104805 37.6895 6 37.5 6 L 10.5 6 z M 10.5 9 C 11.328 9 12 9.672 12 10.5 C 12 11.328 11.328 12 10.5 12 C 9.672 12 9 11.328 9 10.5 C 9 9.7755 9.5139453 9.1711953 10.197266 9.03125 C 10.294883 9.0112578 10.3965 9 10.5 9 z M 15.5 9 C 16.328 9 17 9.672 17 10.5 C 17 11.328 16.328 12 15.5 12 C 14.672 12 14 11.328 14 10.5 C 14 9.672 14.672 9 15.5 9 z M 35.498047 23 C 35.019797 23.00075 34.540063 23.112938 34.101562 23.335938 L 25.814453 27.599609 C 25.314453 27.856609 25 28.371594 25 28.933594 L 25 40.064453 C 25 40.626453 25.314453 41.141437 25.814453 41.398438 L 34.111328 45.667969 C 34.544328 45.889969 35.020094 46 35.496094 46 C 35.976094 46 36.458438 45.887109 36.898438 45.662109 L 45.185547 41.398438 C 45.685547 41.141438 46 40.626453 46 40.064453 L 46 28.933594 C 46 28.371594 45.685547 27.856609 45.185547 27.599609 L 36.888672 23.330078 C 36.453172 23.109078 35.976297 22.99925 35.498047 23 z M 29.949219 28.886719 C 30.143469 28.901781 30.337734 28.955781 30.521484 29.050781 L 33.318359 30.474609 C 34.682359 31.182609 36.313734 31.182609 37.677734 30.474609 L 40.474609 29.050781 C 41.211609 28.669781 42.115094 28.956406 42.496094 29.691406 C 42.880094 30.425406 42.595375 31.330891 41.859375 31.712891 L 39.060547 33.136719 C 38.404547 33.476719 37.709 33.70375 37 33.84375 L 37 40.5 C 37 41.329 36.329 42 35.5 42 C 34.671 42 34 41.329 34 40.5 L 34 33.845703 C 33.291 33.705703 32.595453 33.476719 31.939453 33.136719 L 29.140625 31.712891 C 28.405625 31.330891 28.117047 30.426406 28.498047 29.691406 C 28.783797 29.140906 29.366469 28.841531 29.949219 28.886719 z"/></svg>