<?xml version="1.0" encoding="UTF-8"?>
<svg id="icon" xmlns="http://www.w3.org/2000/svg" viewBox="0 0 128 128">
  <defs>
    <style>
      .cls-1 {
        fill: none;
        stroke: #000;
        stroke-linecap: round;
        stroke-linejoin: round;
        stroke-width: 4px;
      }
    </style>
  </defs>
  <g>
    <line class="cls-1" x1="44.001892" y1="14" x2="74.219417" y2="14"/>
    <line class="cls-1" x1="87.950012" y1="6" x2="40.049988" y2="6"/>
    <line class="cls-1" x1="47.925421" y1="22" x2="80.073398" y2="22"/>
    <line class="cls-1" x1="84" y1="14" x2="43.991883" y2="14"/>
  </g>
  <polyline class="cls-1" points="54.34 53.35 34.69 14 34.7 14 40.05 6 62.71 52.03"/>
  <path class="cls-1" d="M46.84,56.5L30.4,24.09c-.66-1.29-.56-2.83.24-4.04l4.05-6.05,19.65,39.35"/>
  <polyline class="cls-1" points="73.66 53.35 93.31 14 93.3 14 87.95 6 65.29 52.03"/>
  <path class="cls-1" d="M81.16,56.5l16.44-32.41c.66-1.29.56-2.83-.24-4.04l-4.05-6.05-19.65,39.35"/>
  <g>
    <g>
      <path class="cls-1" d="M95.561662,87.004084c0-3.590284,2.785789-7.578717,1.733878-10.818323-1.090198-3.35752-5.724777-4.938437-7.758688-7.733121-2.05423-2.822604-2.139836-7.711472-4.962464-9.765672-2.794605-2.033807-7.46052-.617997-10.817917-1.708157-3.23961-1.051914-6.166182-4.974727-9.75647-4.974727s-6.516852,3.922812-9.756458,4.974723c-3.35752,1.090198-8.023555-.325524-10.818239,1.708386-2.822604,2.05423-2.908157,6.943098-4.962358,9.765726-2.033807,2.794605-6.66832,4.375431-7.75848,7.732828-1.051914,3.23961,1.733873,7.228048,1.733873,10.818337s-2.785789,7.578717-1.733878,10.818323c1.090198,3.35752,5.724777,4.938437,7.758688,7.733121,2.05423,2.822604,2.139836,7.711472,4.962464,9.765672,2.794605,2.033807,7.46052.617997,10.817917,1.708157,3.23961,1.051914,6.166182,4.974727,9.75647,4.974727s6.516852-3.922812,9.756458-4.974723c3.35752-1.090198,8.023555.325524,10.818239-1.708386,2.822604-2.05423,2.908157-6.943098,4.962358-9.765726,2.033807-2.794605,6.66832-4.375431,7.75848-7.732828,1.051914-3.23961-1.733873-7.228048-1.733873-10.818337Z"/>
      <path class="cls-1" d="M95.561662,87.004084c0-3.590284,2.785789-7.578717,1.733878-10.818323-1.090198-3.35752-5.724777-4.938437-7.758688-7.733121-2.05423-2.822604-2.139836-7.711472-4.962464-9.765672-2.794605-2.033807-7.46052-.617997-10.817917-1.708157-3.23961-1.051914-6.166182-4.974727-9.75647-4.974727s-6.516852,3.922812-9.756458,4.974723c-3.35752,1.090198-8.023555-.325524-10.818239,1.708386-2.822604,2.05423-2.908157,6.943098-4.962358,9.765726-2.033807,2.794605-6.66832,4.375431-7.75848,7.732828-1.051914,3.23961,1.733873,7.228048,1.733873,10.818337s-2.785789,7.578717-1.733878,10.818323c1.090198,3.35752,5.724777,4.938437,7.758688,7.733121,2.05423,2.822604,2.139836,7.711472,4.962464,9.765672,2.794605,2.033807,7.46052.617997,10.817917,1.708157,3.23961,1.051914,6.166182,4.974727,9.75647,4.974727s6.516852-3.922812,9.756458-4.974723c3.35752-1.090198,8.023555.325524,10.818239-1.708386,2.822604-2.05423,2.908157-6.943098,4.962358-9.765726,2.033807-2.794605,6.66832-4.375431,7.75848-7.732828,1.051914-3.23961-1.733873-7.228048-1.733873-10.818337Z"/>
    </g>
    <g>
      <path class="cls-1" d="M64,110.004084c-12.682172,0-23-10.317828-23-23s10.317828-23,23-23,23,10.317828,23,23-10.317828,23-23,23Z"/>
      <polygon class="cls-1" points="64 73.667331 68.113575 82.002345 77.311809 83.338926 70.655905 89.82683 72.22715 98.987896 64 94.662627 55.77285 98.987896 57.344095 89.82683 50.688191 83.338926 59.886425 82.002345 64 73.667331"/>
    </g>
  </g>
</svg>