<?xml version="1.0" encoding="UTF-8"?>
<svg id="icon" xmlns="http://www.w3.org/2000/svg" viewBox="0 0 128 128">
  <defs>
    <style>
      .cls-1 {
        fill: none;
        stroke: #000;
        stroke-linecap: round;
        stroke-linejoin: round;
        stroke-width: 4px;
      }
    </style>
  </defs>
  <polyline class="cls-1" points="88.28 43 122 43 112 64 122 85 88.28 85"/>
  <g>
    <line class="cls-1" x1="116" y1="74" x2="97.48" y2="74"/>
    <line class="cls-1" x1="116" y1="54" x2="97.48" y2="54"/>
  </g>
  <polyline class="cls-1" points="39.72 85 6 85 16 64 6 43 39.72 43"/>
  <g>
    <line class="cls-1" x1="30.52" y1="74" x2="12" y2="74"/>
    <line class="cls-1" x1="30.52" y1="54" x2="12" y2="54"/>
  </g>
  <g>
    <path class="cls-1" d="M95.561662,64c0-3.590284,2.785789-7.578717,1.733878-10.818323-1.090198-3.35752-5.724777-4.938437-7.758688-7.733121-2.05423-2.822604-2.139836-7.711472-4.962464-9.765672-2.794605-2.033807-7.46052-.617997-10.817917-1.708157-3.23961-1.051914-6.166182-4.974727-9.75647-4.974727s-6.516852,3.922812-9.756458,4.974723c-3.35752,1.090198-8.023555-.325524-10.818239,1.708386-2.822604,2.05423-2.908157,6.943098-4.962358,9.765726-2.033807,2.794605-6.66832,4.375431-7.75848,7.732828-1.051914,3.23961,1.733873,7.228048,1.733873,10.818337s-2.785789,7.578717-1.733878,10.818323c1.090198,3.35752,5.724777,4.938437,7.758688,7.733121,2.05423,2.822604,2.139836,7.711472,4.962464,9.765672,2.794605,2.033807,7.46052.617997,10.817917,1.708157,3.23961,1.051914,6.166182,4.974727,9.75647,4.974727s6.516852-3.922812,9.756458-4.974723c3.35752-1.090198,8.023555.325524,10.818239-1.708386,2.822604-2.05423,2.908157-6.943098,4.962358-9.765726,2.033807-2.794605,6.66832-4.375431,7.75848-7.732828,1.051914-3.23961-1.733873-7.228048-1.733873-10.818337Z"/>
    <path class="cls-1" d="M95.561662,64c0-3.590284,2.785789-7.578717,1.733878-10.818323-1.090198-3.35752-5.724777-4.938437-7.758688-7.733121-2.05423-2.822604-2.139836-7.711472-4.962464-9.765672-2.794605-2.033807-7.46052-.617997-10.817917-1.708157-3.23961-1.051914-6.166182-4.974727-9.75647-4.974727s-6.516852,3.922812-9.756458,4.974723c-3.35752,1.090198-8.023555-.325524-10.818239,1.708386-2.822604,2.05423-2.908157,6.943098-4.962358,9.765726-2.033807,2.794605-6.66832,4.375431-7.75848,7.732828-1.051914,3.23961,1.733873,7.228048,1.733873,10.818337s-2.785789,7.578717-1.733878,10.818323c1.090198,3.35752,5.724777,4.938437,7.758688,7.733121,2.05423,2.822604,2.139836,7.711472,4.962464,9.765672,2.794605,2.033807,7.46052.617997,10.817917,1.708157,3.23961,1.051914,6.166182,4.974727,9.75647,4.974727s6.516852-3.922812,9.756458-4.974723c3.35752-1.090198,8.023555.325524,10.818239-1.708386,2.822604-2.05423,2.908157-6.943098,4.962358-9.765726,2.033807-2.794605,6.66832-4.375431,7.75848-7.732828,1.051914-3.23961-1.733873-7.228048-1.733873-10.818337Z"/>
  </g>
  <g>
    <path class="cls-1" d="M64,87c-12.682172,0-23-10.317828-23-23s10.317828-23,23-23,23,10.317828,23,23-10.317828,23-23,23Z"/>
    <polygon class="cls-1" points="64 50.663247 68.113575 58.99826 77.311809 60.334842 70.655905 66.822746 72.22715 75.983812 64 71.658543 55.77285 75.983812 57.344095 66.822746 50.688191 60.334842 59.886425 58.99826 64 50.663247"/>
  </g>
</svg>