<?xml version="1.0" encoding="UTF-8"?>
<svg id="icon" xmlns="http://www.w3.org/2000/svg" viewBox="0 0 128 128">
  <defs>
    <style>
      .cls-1 {
        fill: none;
        stroke: #000;
        stroke-linecap: round;
        stroke-linejoin: round;
        stroke-width: 4px;
      }
    </style>
  </defs>
  <g>
    <path class="cls-1" d="M94.11,82c1.41-2.6,1.21-6.46,2.68-9,1.72-2.97,6.21-4.86,7.11-8.24.88-3.27-2.04-7.15-2.04-10.69,0-3.55,2.92-7.43,2.04-10.7-.9-3.38-5.39-5.27-7.11-8.24-1.73-3-1.15-7.83-3.59-10.27-2.43-2.44-7.27-1.85-10.27-3.59-2.96-1.71-4.86-6.2-8.24-7.11-3.27-.87-7.15,2.05-10.69,2.05s-7.42-2.92-10.69-2.05c-3.38.91-5.28,5.4-8.24,7.11-3,1.74-7.84,1.15-10.27,3.59-2.44,2.44-1.86,7.27-3.59,10.28-1.72,2.96-6.21,4.85-7.11,8.23-.88,3.27,2.04,7.15,2.04,10.7,0,3.54-2.92,7.42-2.04,10.69.9,3.38,5.39,5.28,7.11,8.24,1.47,2.54,1.27,6.4,2.68,9h60.22Z"/>
    <path class="cls-1" d="M94.11,82c1.41-2.6,1.21-6.46,2.68-9,1.72-2.97,6.21-4.86,7.11-8.24.88-3.27-2.04-7.15-2.04-10.69,0-3.55,2.92-7.43,2.04-10.7-.9-3.38-5.39-5.27-7.11-8.24-1.73-3-1.15-7.83-3.59-10.27-2.43-2.44-7.27-1.85-10.27-3.59-2.96-1.71-4.86-6.2-8.24-7.11-3.27-.87-7.15,2.05-10.69,2.05s-7.42-2.92-10.69-2.05c-3.38.91-5.28,5.4-8.24,7.11-3,1.74-7.84,1.15-10.27,3.59-2.44,2.44-1.86,7.27-3.59,10.28-1.72,2.96-6.21,4.85-7.11,8.23-.88,3.27,2.04,7.15,2.04,10.7,0,3.54-2.92,7.42-2.04,10.69.9,3.38,5.39,5.28,7.11,8.24,1.47,2.54,1.27,6.4,2.68,9"/>
  </g>
  <g>
    <path class="cls-1" d="M64,82.065318c-15.439166,0-28-12.560834-28-28s12.560834-28,28-28,28,12.560834,28,28-12.560834,28-28,28Z"/>
    <polygon class="cls-1" points="64 37.10214 69.232106 47.703545 80.931451 49.403559 72.465726 57.655602 74.464212 69.307674 64 63.806312 53.535788 69.307674 55.534274 57.655602 47.068549 49.403559 58.767894 47.703545 64 37.10214"/>
  </g>
  <polyline class="cls-1" points="36 103 36 114 6 114 12.18 103 6 92 23 92"/>
  <line class="cls-1" x1="23" y1="102.999999" x2="36" y2="113.999999"/>
  <polyline class="cls-1" points="105 92 122 92 115.82 103 122 114 92 114 92 103"/>
  <rect class="cls-1" x="23" y="81.999999" width="82" height="21"/>
  <line class="cls-1" x1="105" y1="102.999999" x2="92" y2="113.999999"/>
</svg>