<?xml version="1.0" encoding="UTF-8"?>
<svg id="icon" xmlns="http://www.w3.org/2000/svg" viewBox="0 0 128 128">
  <defs>
    <style>
      .cls-1 {
        fill: none;
        stroke: #000;
        stroke-linecap: round;
        stroke-linejoin: round;
        stroke-width: 4px;
      }
    </style>
  </defs>
  <path class="cls-1" d="M23,76.32c-7-17.06-7-36.59-7-58,25.98,0,36.71-5.19,48-12.32,11.29,7.13,22.02,12.32,48,12.32,0,21.41,0,40.94-7,58"/>
  <path class="cls-1" d="M36,96.44c6.77,7.17,15.85,13.71,28,19.56,12.15-5.85,21.23-12.39,28-19.56"/>
  <path class="cls-1" d="M33.1,74.33c-6.02-13.26-6.94-28.6-7.08-46.29,18.36-1.08,28.89-5.17,37.98-10.36,9.09,5.19,19.62,9.28,37.98,10.36-.14,17.69-1.06,33.03-7.08,46.29"/>
  <path class="cls-1" d="M49.55,95.33c4.07,3.33,8.85,6.48,14.45,9.46,5.6-2.98,10.38-6.13,14.45-9.46"/>
  <polygon class="cls-1" points="64 32.043052 69.278468 42.738396 81.081482 44.453475 72.540741 52.77864 74.556936 64.533961 64 58.983851 53.443064 64.533961 55.459259 52.77864 46.918518 44.453475 58.721532 42.738396 64 32.043052"/>
  <polyline class="cls-1" points="36 95.33 36 106.33 6 106.33 12.18 95.33 6 84.33 23 84.33"/>
  <line class="cls-1" x1="23" y1="95.330794" x2="36" y2="106.330794"/>
  <polyline class="cls-1" points="105 84.33 122 84.33 115.82 95.33 122 106.33 92 106.33 92 95.33"/>
  <rect class="cls-1" x="23" y="74.330794" width="82" height="21"/>
  <line class="cls-1" x1="105" y1="95.330794" x2="92" y2="106.330794"/>
</svg>