<?xml version="1.0" encoding="UTF-8"?>
<svg id="icon" xmlns="http://www.w3.org/2000/svg" viewBox="0 0 128 128">
  <defs>
    <style>
      .cls-1 {
        fill: none;
        stroke: #000;
        stroke-linecap: round;
        stroke-linejoin: round;
        stroke-width: 4px;
      }
    </style>
  </defs>
  <g>
    <g>
      <polyline class="cls-1" points="69.52785 24.690412 71.77142 10.566529 63.999962 6.000001 64 6 50.728776 11.64869"/>
      <line class="cls-1" x1="63.999962" y1="24.267891" x2="63.999962" y2="6.000001"/>
    </g>
    <g>
      <polyline class="cls-1" points="54.063939 25.567259 50.731752 11.659916 41.804326 10.415003 41.804361 10.414987 31.705009 20.712374"/>
      <line class="cls-1" x1="48.795145" y1="27.292333" x2="41.804326" y2="10.415003"/>
    </g>
    <g>
      <polyline class="cls-1" points="40.112704 32.295143 31.712055 20.721606 22.98778 22.987834 22.987807 22.987807 17.597861 36.366206"/>
      <line class="cls-1" x1="35.90513" y1="35.905183" x2="22.98778" y2="22.987834"/>
    </g>
    <g>
      <polyline class="cls-1" points="29.798093 43.849804 17.607904 36.37204 10.414973 41.804396 10.414987 41.804361 10.555019 56.227033"/>
      <line class="cls-1" x1="27.292304" y1="48.795215" x2="10.414973" y2="41.804396"/>
    </g>
    <g>
      <polyline class="cls-1" points="24.690412 58.47215 10.566529 56.22858 6.000001 64.000038 6 64 11.64869 77.271224"/>
      <line class="cls-1" x1="24.267891" y1="64.000038" x2="6.000001" y2="64.000038"/>
    </g>
    <g>
      <polyline class="cls-1" points="25.567259 73.936061 11.659916 77.268248 10.415003 86.195674 10.414987 86.195639 20.712374 96.294991"/>
      <line class="cls-1" x1="27.292333" y1="79.204855" x2="10.415003" y2="86.195674"/>
    </g>
    <g>
      <polyline class="cls-1" points="32.295143 87.887296 20.721606 96.287945 22.987834 105.01222 22.987807 105.012193 36.366206 110.402139"/>
      <line class="cls-1" x1="35.905183" y1="92.09487" x2="22.987834" y2="105.01222"/>
    </g>
    <g>
      <polyline class="cls-1" points="43.849804 98.201907 36.37204 110.392096 41.804396 117.585027 41.804361 117.585013 56.227033 117.444981"/>
      <line class="cls-1" x1="48.795215" y1="100.707696" x2="41.804396" y2="117.585027"/>
    </g>
    <g>
      <polyline class="cls-1" points="58.47215 103.309588 56.22858 117.433471 64.000038 121.999999 64 122 77.271224 116.35131"/>
      <line class="cls-1" x1="64.000038" y1="103.732109" x2="64.000038" y2="121.999999"/>
    </g>
    <g>
      <polyline class="cls-1" points="73.936061 102.432741 77.268248 116.340084 86.195674 117.584997 86.195639 117.585013 96.294991 107.287626"/>
      <line class="cls-1" x1="79.204855" y1="100.707667" x2="86.195674" y2="117.584997"/>
    </g>
    <g>
      <polyline class="cls-1" points="87.887296 95.704857 96.287945 107.278394 105.01222 105.012166 105.012193 105.012193 110.402139 91.633794"/>
      <line class="cls-1" x1="92.09487" y1="92.094817" x2="105.01222" y2="105.012166"/>
    </g>
    <g>
      <polyline class="cls-1" points="98.201907 84.150196 110.392096 91.62796 117.585027 86.195604 117.585013 86.195639 117.444981 71.772967"/>
      <line class="cls-1" x1="100.707696" y1="79.204785" x2="117.585027" y2="86.195604"/>
    </g>
    <g>
      <polyline class="cls-1" points="103.309588 69.52785 117.433471 71.77142 121.999999 63.999962 122 64 116.35131 50.728776"/>
      <line class="cls-1" x1="103.732109" y1="63.999962" x2="121.999999" y2="63.999962"/>
    </g>
    <g>
      <polyline class="cls-1" points="102.432741 54.063939 116.340084 50.731752 117.584997 41.804326 117.585013 41.804361 107.287626 31.705009"/>
      <line class="cls-1" x1="100.707667" y1="48.795145" x2="117.584997" y2="41.804326"/>
    </g>
    <g>
      <polyline class="cls-1" points="95.704857 40.112704 107.278394 31.712055 105.012166 22.987781 105.012193 22.987807 91.633794 17.597861"/>
      <line class="cls-1" x1="92.094817" y1="35.90513" x2="105.012166" y2="22.987781"/>
    </g>
    <g>
      <polyline class="cls-1" points="84.150196 29.798093 91.62796 17.607904 86.195604 10.414973 86.195639 10.414987 71.772967 10.555019"/>
      <line class="cls-1" x1="79.204785" y1="27.292304" x2="86.195604" y2="10.414973"/>
    </g>
  </g>
  <circle class="cls-1" cx="64" cy="64" r="39.691455"/>
  <path class="cls-1" d="M64,93.691406c-16.37207,0-29.691406-13.319336-29.691406-29.691406s13.319336-29.691406,29.691406-29.691406,29.691406,13.319336,29.691406,29.691406-13.319336,29.691406-29.691406,29.691406Z"/>
  <polygon class="cls-1" points="64 46.988587 69.246984 57.620137 80.979596 59.324985 72.489798 67.600493 74.493967 79.285698 64 73.768693 53.506033 79.285698 55.510202 67.600493 47.020404 59.324985 58.753016 57.620137 64 46.988587"/>
</svg>