<?xml version="1.0" encoding="UTF-8"?>
<svg id="icon" xmlns="http://www.w3.org/2000/svg" viewBox="0 0 128 128">
  <defs>
    <style>
      .cls-1 {
        fill: none;
        stroke: #000;
        stroke-linecap: round;
        stroke-linejoin: round;
        stroke-width: 4px;
      }
    </style>
  </defs>
  <g>
    <line class="cls-1" x1="44.001892" y1="14" x2="74.219417" y2="14"/>
    <line class="cls-1" x1="87.950012" y1="6" x2="40.049988" y2="6"/>
    <line class="cls-1" x1="47.925421" y1="22" x2="80.073398" y2="22"/>
    <line class="cls-1" x1="84" y1="14" x2="43.991883" y2="14"/>
  </g>
  <polyline class="cls-1" points="54.34 53.35 34.69 14 34.7 14 40.05 6 62.71 52.03"/>
  <path class="cls-1" d="M46.84,56.5L30.4,24.09c-.66-1.29-.56-2.83.24-4.04l4.05-6.05,19.65,39.35"/>
  <polyline class="cls-1" points="73.66 53.35 93.31 14 93.3 14 87.95 6 65.29 52.03"/>
  <path class="cls-1" d="M81.16,56.5l16.44-32.41c.66-1.29.56-2.83-.24-4.04l-4.05-6.05-19.65,39.35"/>
  <g>
    <polyline class="cls-1" points="55.62 54.968294 55.58 54.798294 66.34 50.588294 66.19 53.648294 66.19 53.688294 66.191215 53.652053 65.159703 64.731196"/>
    <polyline class="cls-1" points="45.940742 59.155861 45.850166 59.006542 54.782573 51.677572 55.585506 54.634157 55.597867 54.672199 55.587823 54.637356 58.030441 65.493002"/>
    <polyline class="cls-1" points="38.029249 66.12953 37.896965 66.015508 44.127412 56.284977 45.804682 58.848737 45.828194 58.881098 45.807874 58.851064 51.48552 68.420586"/>
    <polyline class="cls-1" points="32.659955 75.206668 32.49891 75.139105 35.417518 63.959506 37.804942 65.879482 37.837303 65.902993 37.808697 65.880708 46.165605 73.227376"/>
    <polyline class="cls-1" points="30.358442 85.498743 30.184402 85.484252 29.505477 73.949923 32.369357 75.038173 32.4074 75.050534 32.373307 75.038179 42.591444 79.442849"/>
    <polyline class="cls-1" points="31.35 95.998294 31.18 96.038294 26.97 85.278294 30.03 85.428294 30.07 85.428294 30.033759 85.42708 41.112902 86.458591"/>
    <polyline class="cls-1" points="35.537567 105.677553 35.388248 105.768128 28.059277 96.835721 31.015863 96.032788 31.053905 96.020427 31.019062 96.030471 41.874708 93.587853"/>
    <polyline class="cls-1" points="42.511236 113.589045 42.397214 113.721329 32.666683 107.490882 35.230443 105.813612 35.262804 105.790101 35.23277 105.81042 44.802292 100.132774"/>
    <polyline class="cls-1" points="51.588374 118.958339 51.520811 119.119384 40.341212 116.200776 42.261188 113.813352 42.284699 113.780991 42.262414 113.809597 49.609082 105.452689"/>
    <polyline class="cls-1" points="61.880449 121.259852 61.865958 121.433892 50.331628 122.112817 51.419879 119.248937 51.43224 119.210895 51.419885 119.244987 55.824555 109.02685"/>
    <polyline class="cls-1" points="72.38 120.268294 72.42 120.438294 61.66 124.648294 61.81 121.588294 61.81 121.548294 61.808785 121.584536 62.840297 110.505393"/>
    <polyline class="cls-1" points="82.059258 116.080727 82.149834 116.230046 73.217427 123.559017 72.414494 120.602431 72.402133 120.564389 72.412177 120.599232 69.969559 109.743586"/>
    <polyline class="cls-1" points="89.970751 109.107059 90.103035 109.22108 83.872588 118.951611 82.195318 116.387851 82.171806 116.35549 82.192126 116.385524 76.51448 106.816002"/>
    <polyline class="cls-1" points="95.340045 100.02992 95.50109 100.097483 92.582482 111.277082 90.195058 109.357106 90.162697 109.333595 90.191303 109.35588 81.834395 102.009212"/>
    <polyline class="cls-1" points="97.641558 89.737845 97.815598 89.752336 98.494523 101.286666 95.630643 100.198415 95.5926 100.186055 95.626693 100.198409 85.408556 95.79374"/>
    <polyline class="cls-1" points="96.65 79.238294 96.82 79.198294 101.03 89.958294 97.97 89.808294 97.93 89.808294 97.966241 89.809509 86.887098 88.777997"/>
    <polyline class="cls-1" points="92.462433 69.559036 92.611752 69.468461 99.940723 78.400867 96.984137 79.203801 96.946095 79.216161 96.980938 79.206117 86.125292 81.648735"/>
    <polyline class="cls-1" points="85.488764 61.647543 85.602786 61.515259 95.333317 67.745706 92.769557 69.422976 92.737196 69.446488 92.76723 69.426168 83.197708 75.103815"/>
    <polyline class="cls-1" points="76.411626 56.278249 76.479189 56.117205 87.658788 59.035812 85.738812 61.423237 85.715301 61.455597 85.737586 61.426991 78.390918 69.783899"/>
    <polyline class="cls-1" points="66.119551 53.976736 66.134042 53.802696 77.668372 53.123771 76.580121 55.987652 76.56776 56.025694 76.580115 55.991601 72.175445 66.209738"/>
  </g>
  <path class="cls-1" d="M64,110.618294c-12.682172,0-23-10.317828-23-23s10.317828-23,23-23,23,10.317828,23,23-10.317828,23-23,23Z"/>
  <polygon class="cls-1" points="64 74.281541 68.113575 82.616555 77.311809 83.953136 70.655905 90.44104 72.22715 99.602106 64 95.276837 55.77285 99.602106 57.344095 90.44104 50.688191 83.953136 59.886425 82.616555 64 74.281541"/>
</svg>