<?xml version="1.0" encoding="UTF-8"?>
<svg id="icon" xmlns="http://www.w3.org/2000/svg" viewBox="0 0 128 128">
  <defs>
    <style>
      .cls-1 {
        fill: none;
        stroke: #000;
        stroke-linecap: round;
        stroke-linejoin: round;
        stroke-width: 4px;
      }
    </style>
  </defs>
  <polyline class="cls-1" points="33 32.55 33 6 47 6 81 6 95 6 95 32.55"/>
  <polyline class="cls-1" points="95 83.45 95 122 64 110.47 33 122 33 83.45"/>
  <g>
    <line class="cls-1" x1="47" y1="23.63" x2="47" y2="6"/>
    <line class="cls-1" x1="47" y1="116.59" x2="47" y2="92.37"/>
    <line class="cls-1" x1="81" y1="23.63" x2="81" y2="6"/>
    <line class="cls-1" x1="81" y1="116.59" x2="81" y2="92.37"/>
  </g>
  <g>
    <path class="cls-1" d="M101.85809,58c0-3.543703,2.917561-7.422987,2.043985-10.691272-.903857-3.381576-5.396276-5.278612-7.109278-8.239301-1.737635-3.003265-1.152308-7.835614-3.589672-10.272945-2.437351-2.437319-7.269679-1.851919-10.272951-3.589509-2.960601-1.712902-4.857551-6.205259-8.239004-7.109074-3.268256-.873559-7.147503,2.044012-10.691171,2.044012-3.543703,0-7.422987-2.917561-10.691272-2.043985-3.381576.903857-5.278612,5.396276-8.239301,7.109278-3.003265,1.737635-7.835614,1.152308-10.272945,3.589672-2.437319,2.437351-1.851919,7.269679-3.589509,10.272951-1.712902,2.960601-6.205259,4.857551-7.109074,8.239004-.873559,3.268256,2.044012,7.147504,2.044012,10.691171,0,3.543703-2.917561,7.422987-2.043985,10.691272.903857,3.381576,5.396276,5.278612,7.109277,8.239301,1.737635,3.003265,1.152308,7.835614,3.589672,10.272946,2.437351,2.437319,7.269679,1.851919,10.272951,3.589509,2.960601,1.712902,4.857551,6.205259,8.239004,7.109074,3.268256.873559,7.147504-2.044012,10.691171-2.044012,3.543703,0,7.422987,2.917561,10.691272,2.043985,3.381576-.903857,5.278612-5.396276,8.239301-7.109278,3.003265-1.737635,7.835614-1.152308,10.272946-3.589672,2.437319-2.437351,1.851919-7.269679,3.589509-10.272951,1.712902-2.960601,6.205259-4.857551,7.109074-8.239004.873559-3.268256-2.044012-7.147504-2.044012-10.691171Z"/>
    <path class="cls-1" d="M101.85809,58c0-3.543703,2.917561-7.422987,2.043985-10.691272-.903857-3.381576-5.396276-5.278612-7.109278-8.239301-1.737635-3.003265-1.152308-7.835614-3.589672-10.272945-2.437351-2.437319-7.269679-1.851919-10.272951-3.589509-2.960601-1.712902-4.857551-6.205259-8.239004-7.109074-3.268256-.873559-7.147503,2.044012-10.691171,2.044012-3.543703,0-7.422987-2.917561-10.691272-2.043985-3.381576.903857-5.278612,5.396276-8.239301,7.109278-3.003265,1.737635-7.835614,1.152308-10.272945,3.589672-2.437319,2.437351-1.851919,7.269679-3.589509,10.272951-1.712902,2.960601-6.205259,4.857551-7.109074,8.239004-.873559,3.268256,2.044012,7.147504,2.044012,10.691171,0,3.543703-2.917561,7.422987-2.043985,10.691272.903857,3.381576,5.396276,5.278612,7.109277,8.239301,1.737635,3.003265,1.152308,7.835614,3.589672,10.272946,2.437351,2.437319,7.269679,1.851919,10.272951,3.589509,2.960601,1.712902,4.857551,6.205259,8.239004,7.109074,3.268256.873559,7.147504-2.044012,10.691171-2.044012,3.543703,0,7.422987,2.917561,10.691272,2.043985,3.381576-.903857,5.278612-5.396276,8.239301-7.109278,3.003265-1.737635,7.835614-1.152308,10.272946-3.589672,2.437319-2.437351,1.851919-7.269679,3.589509-10.272951,1.712902-2.960601,6.205259-4.857551,7.109074-8.239004.873559-3.268256-2.044012-7.147504-2.044012-10.691171Z"/>
  </g>
  <g>
    <path class="cls-1" d="M64,86c-15.439166,0-28-12.560834-28-28s12.560834-28,28-28,28,12.560834,28,28-12.560834,28-28,28Z"/>
    <polygon class="cls-1" points="64 41.036822 69.232106 51.638227 80.931451 53.338241 72.465726 61.590284 74.464212 73.242356 64 67.740994 53.535788 73.242356 55.534274 61.590284 47.068549 53.338241 58.767894 51.638227 64 41.036822"/>
  </g>
</svg>