<?xml version="1.0" encoding="UTF-8"?>
<svg id="icon" xmlns="http://www.w3.org/2000/svg" viewBox="0 0 128 128">
  <defs>
    <style>
      .cls-1 {
        fill: none;
        stroke: #000;
        stroke-linecap: round;
        stroke-linejoin: round;
        stroke-width: 4px;
      }
    </style>
  </defs>
  <polyline class="cls-1" points="94.3 88.41 106.12 111.54 92.24 109.65 85.64 122 73.92 99.06"/>
  <polyline class="cls-1" points="33.7 88.41 21.88 111.54 35.76 109.65 42.36 122 54.08 99.06"/>
  <g>
    <path class="cls-1" d="M108,52.56532c0-4.118615,3.390892-8.627256,2.375592-12.425772-1.050495-3.930186-6.271742-6.134988-8.262652-9.576005-2.019541-3.4905-1.339252-9.106825-4.172042-11.939577-2.832775-2.832737-8.449075-2.152365-11.939584-4.171854-3.440914-1.990795-5.645616-7.21197-9.575659-8.262415-3.798482-1.015281-8.307079,2.375623-12.425654,2.375623-4.118615,0-8.627256-3.390892-12.425772-2.375592-3.930186,1.050495-6.134988,6.271742-9.576005,8.262652-3.4905,2.019541-9.106825,1.339252-11.939577,4.172042-2.832737,2.832775-2.152365,8.449075-4.171854,11.939584-1.990795,3.440914-7.21197,5.645616-8.262415,9.575659-1.015281,3.798482,2.375623,8.30708,2.375623,12.425654,0,4.118615-3.390892,8.627256-2.375592,12.425771,1.050495,3.930186,6.271741,6.134988,8.262652,9.576005,2.019541,3.4905,1.339253,9.106826,4.172043,11.939578,2.832775,2.832737,8.449076,2.152365,11.939584,4.171854,3.440914,1.990795,5.645616,7.211969,9.575659,8.262415,3.798482,1.015281,8.307079-2.375623,12.425654-2.375623,4.118615,0,8.627256,3.390892,12.425771,2.375592,3.930186-1.050495,6.134988-6.271742,9.576005-8.262652,3.4905-2.019541,9.106825-1.339252,11.939578-4.172043,2.832737-2.832775,2.152365-8.449076,4.171854-11.939584,1.990795-3.440914,7.211969-5.645616,8.262415-9.575659,1.015281-3.798482-2.375623-8.307079-2.375623-12.425654Z"/>
    <path class="cls-1" d="M108,52.56532c0-4.118615,3.390892-8.627256,2.375592-12.425772-1.050495-3.930186-6.271742-6.134988-8.262652-9.576005-2.019541-3.4905-1.339252-9.106825-4.172042-11.939577-2.832775-2.832737-8.449075-2.152365-11.939584-4.171854-3.440914-1.990795-5.645616-7.21197-9.575659-8.262415-3.798482-1.015281-8.307079,2.375623-12.425654,2.375623-4.118615,0-8.627256-3.390892-12.425772-2.375592-3.930186,1.050495-6.134988,6.271742-9.576005,8.262652-3.4905,2.019541-9.106825,1.339252-11.939577,4.172042-2.832737,2.832775-2.152365,8.449075-4.171854,11.939584-1.990795,3.440914-7.21197,5.645616-8.262415,9.575659-1.015281,3.798482,2.375623,8.30708,2.375623,12.425654,0,4.118615-3.390892,8.627256-2.375592,12.425771,1.050495,3.930186,6.271741,6.134988,8.262652,9.576005,2.019541,3.4905,1.339253,9.106826,4.172043,11.939578,2.832775,2.832737,8.449076,2.152365,11.939584,4.171854,3.440914,1.990795,5.645616,7.211969,9.575659,8.262415,3.798482,1.015281,8.307079-2.375623,12.425654-2.375623,4.118615,0,8.627256,3.390892,12.425771,2.375592,3.930186-1.050495,6.134988-6.271742,9.576005-8.262652,3.4905-2.019541,9.106825-1.339252,11.939578-4.172043,2.832737-2.832775,2.152365-8.449076,4.171854-11.939584,1.990795-3.440914,7.211969-5.645616,8.262415-9.575659,1.015281-3.798482-2.375623-8.307079-2.375623-12.425654Z"/>
  </g>
  <g>
    <path class="cls-1" d="M64,86.56532c-18.747559,0-34-15.252441-34-34s15.252441-34,34-34,34,15.252441,34,34-15.252441,34-34,34Z"/>
    <polygon class="cls-1" points="64 32.850119 70.080937 45.171444 83.678327 47.14726 73.839163 56.738074 76.161875 70.28052 64 63.886644 51.838125 70.28052 54.160837 56.738074 44.321673 47.14726 57.919063 45.171444 64 32.850119"/>
  </g>
</svg>