<?xml version="1.0" encoding="UTF-8"?>
<svg id="icon" xmlns="http://www.w3.org/2000/svg" viewBox="0 0 128 128">
  <defs>
    <style>
      .cls-1 {
        fill: none;
        stroke: #000;
        stroke-linecap: round;
        stroke-linejoin: round;
        stroke-width: 4px;
      }
    </style>
  </defs>
  <polyline class="cls-1" points="83.67 49.31 95 42 95 14 64 14 33 14 33 42 44.33 49.31"/>
  <line class="cls-1" x1="46" y1="48.39" x2="46" y2="14"/>
  <line class="cls-1" x1="82" y1="48.39" x2="82" y2="14"/>
  <circle class="cls-1" cx="64" cy="83.002042" r="39.002042"/>
  <path class="cls-1" d="M64,112.003906c-15.991699,0-29.001953-13.010254-29.001953-29.001953s13.010254-29.001953,29.001953-29.001953c15.992188,0,29.001953,13.010254,29.001953,29.001953s-13.009766,29.001953-29.001953,29.001953Z"/>
  <rect class="cls-1" x="27" y="6" width="74" height="8"/>
  <polygon class="cls-1" points="64 67.680184 68.811256 77.428853 79.569551 78.992125 71.784775 86.580406 73.622512 97.29523 64 92.236376 54.377488 97.29523 56.215225 86.580406 48.430449 78.992125 59.188744 77.428853 64 67.680184"/>
</svg>