<?xml version="1.0" encoding="UTF-8"?>
<svg id="icon" xmlns="http://www.w3.org/2000/svg" viewBox="0 0 128 128">
  <defs>
    <style>
      .cls-1 {
        fill: none;
        stroke: #000;
        stroke-linecap: round;
        stroke-linejoin: round;
        stroke-width: 4px;
      }
    </style>
  </defs>
  <polyline class="cls-1" points="85 88 85 122 64 112 43 122 43 88"/>
  <g>
    <line class="cls-1" x1="54" y1="116" x2="54" y2="95.97"/>
    <line class="cls-1" x1="74" y1="116" x2="74" y2="95.97"/>
  </g>
  <g>
    <path class="cls-1" d="M106.520915,51c0-3.980166,3.276905-8.337246,2.295735-12.008072-1.015182-3.798071-6.060914-5.928757-7.984898-9.254102-1.951653-3.373165-1.294233-8.800694-4.031797-11.538222-2.73755-2.737513-8.165055-2.080012-11.538228-4.031614-3.325246-1.923873-5.455835-6.969535-9.253768-7.98467-3.670794-.981152-8.027832,2.295765-12.007959,2.295765-3.980166,0-8.337246-3.276905-12.008072-2.295735-3.798071,1.015182-5.928757,6.060914-9.254102,7.984898-3.373165,1.951653-8.800694,1.294233-11.538222,4.031797-2.737513,2.73755-2.080012,8.165055-4.031614,11.538228-1.923873,3.325246-6.969535,5.455835-7.98467,9.253768-.981152,3.670794,2.295765,8.027832,2.295765,12.007959,0,3.980166-3.276905,8.337246-2.295735,12.008072,1.015182,3.798071,6.060913,5.928757,7.984898,9.254102,1.951653,3.373165,1.294233,8.800694,4.031797,11.538222,2.73755,2.737513,8.165055,2.080012,11.538228,4.031614,3.325246,1.923873,5.455835,6.969535,9.253768,7.98467,3.670794.981152,8.027832-2.295765,12.007959-2.295765,3.980166,0,8.337246,3.276905,12.008072,2.295735,3.798071-1.015182,5.928757-6.060913,9.254102-7.984898,3.373165-1.951653,8.800694-1.294233,11.538222-4.031797,2.737513-2.73755,2.080012-8.165055,4.031615-11.538228,1.923873-3.325246,6.969535-5.455835,7.984669-9.253768.981152-3.670794-2.295765-8.027832-2.295765-12.007959Z"/>
    <path class="cls-1" d="M106.520915,51c0-3.980166,3.276905-8.337246,2.295735-12.008072-1.015182-3.798071-6.060914-5.928757-7.984898-9.254102-1.951653-3.373165-1.294233-8.800694-4.031797-11.538222-2.73755-2.737513-8.165055-2.080012-11.538228-4.031614-3.325246-1.923873-5.455835-6.969535-9.253768-7.98467-3.670794-.981152-8.027832,2.295765-12.007959,2.295765-3.980166,0-8.337246-3.276905-12.008072-2.295735-3.798071,1.015182-5.928757,6.060914-9.254102,7.984898-3.373165,1.951653-8.800694,1.294233-11.538222,4.031797-2.737513,2.73755-2.080012,8.165055-4.031614,11.538228-1.923873,3.325246-6.969535,5.455835-7.98467,9.253768-.981152,3.670794,2.295765,8.027832,2.295765,12.007959,0,3.980166-3.276905,8.337246-2.295735,12.008072,1.015182,3.798071,6.060913,5.928757,7.984898,9.254102,1.951653,3.373165,1.294233,8.800694,4.031797,11.538222,2.73755,2.737513,8.165055,2.080012,11.538228,4.031614,3.325246,1.923873,5.455835,6.969535,9.253768,7.98467,3.670794.981152,8.027832-2.295765,12.007959-2.295765,3.980166,0,8.337246,3.276905,12.008072,2.295735,3.798071-1.015182,5.928757-6.060913,9.254102-7.984898,3.373165-1.951653,8.800694-1.294233,11.538222-4.031797,2.737513-2.73755,2.080012-8.165055,4.031615-11.538228,1.923873-3.325246,6.969535-5.455835,7.984669-9.253768.981152-3.670794-2.295765-8.027832-2.295765-12.007959Z"/>
  </g>
  <path class="cls-1" d="M64,82c-17.093362,0-31-13.906638-31-31s13.906638-31,31-31,31,13.906638,31,31-13.906638,31-31,31Z"/>
  <polygon class="cls-1" points="64 33 69.523635 44.192107 81.874858 45.986844 72.937429 54.698684 75.04727 67 64 61.192107 52.95273 67 55.062571 54.698684 46.125142 45.986844 58.476365 44.192107 64 33"/>
</svg>