<?xml version="1.0" encoding="UTF-8"?>
<svg id="icon" xmlns="http://www.w3.org/2000/svg" viewBox="0 0 128 128">
  <defs>
    <style>
      .cls-1 {
        fill: none;
        stroke: #000;
        stroke-linecap: round;
        stroke-linejoin: round;
        stroke-width: 4px;
      }
    </style>
  </defs>
  <g>
    <line class="cls-1" x1="44.001892" y1="14" x2="74.219417" y2="14"/>
    <line class="cls-1" x1="87.950012" y1="6" x2="40.049988" y2="6"/>
    <line class="cls-1" x1="47.925421" y1="22" x2="80.073398" y2="22"/>
    <line class="cls-1" x1="84" y1="14" x2="43.991883" y2="14"/>
  </g>
  <polyline class="cls-1" points="54.34 53.35 34.69 14 34.7 14 40.05 6 62.71 52.03"/>
  <path class="cls-1" d="M46.84,56.5L30.4,24.09c-.66-1.29-.56-2.83.24-4.04l4.05-6.05,19.65,39.35"/>
  <polyline class="cls-1" points="73.66 53.35 93.31 14 93.3 14 87.95 6 65.29 52.03"/>
  <path class="cls-1" d="M81.16,56.5l16.44-32.41c.66-1.29.56-2.83-.24-4.04l-4.05-6.05-19.65,39.35"/>
  <circle class="cls-1" cx="64" cy="87.002042" r="35.002042"/>
  <path class="cls-1" d="M64,114.003906c-14.888672,0-27.001953-12.112793-27.001953-27.001953s12.113281-27.001953,27.001953-27.001953,27.001953,12.112793,27.001953,27.001953-12.113281,27.001953-27.001953,27.001953Z"/>
  <polygon class="cls-1" points="64 71.3234 68.811256 81.072069 79.569551 82.63534 71.784775 90.223621 73.622512 100.938445 64 95.879591 54.377488 100.938445 56.215225 90.223621 48.430449 82.63534 59.188744 81.072069 64 71.3234"/>
</svg>