<?xml version="1.0" encoding="UTF-8"?>
<svg id="icon" xmlns="http://www.w3.org/2000/svg" viewBox="0 0 128 128">
  <defs>
    <style>
      .cls-1 {
        fill: none;
        stroke: #000;
        stroke-linecap: round;
        stroke-linejoin: round;
        stroke-width: 4px;
      }
    </style>
  </defs>
  <polyline class="cls-1" points="64 25 72 6 95 6 82.11 36.62"/>
  <line class="cls-1" x1="72" y1="44" x2="56" y2="44"/>
  <path class="cls-1" d="M41,60.61v-16.61c0-3.32,2.02-6.16,4.89-7.38"/>
  <path class="cls-1" d="M68.63,36h10.37c4.42,0,8,3.58,8,8v16.61"/>
  <polyline class="cls-1" points="49 55.37 49 44 79 44 79 55.37"/>
  <circle class="cls-1" cx="64" cy="87.002042" r="35.002042"/>
  <path class="cls-1" d="M64,114.003906c-14.888672,0-27.001953-12.112793-27.001953-27.001953s12.113281-27.001953,27.001953-27.001953,27.001953,12.112793,27.001953,27.001953-12.113281,27.001953-27.001953,27.001953Z"/>
  <polygon class="cls-1" points="64 71.3234 68.811256 81.072069 79.569551 82.63534 71.784775 90.223621 73.622512 100.938445 64 95.879591 54.377488 100.938445 56.215225 90.223621 48.430449 82.63534 59.188744 81.072069 64 71.3234"/>
  <polygon class="cls-1" points="72 44 49 44 33 6 56 6 72 44"/>
</svg>