<?xml version="1.0" encoding="UTF-8"?>
<svg id="icon" xmlns="http://www.w3.org/2000/svg" viewBox="0 0 128 128">
  <defs>
    <style>
      .cls-1 {
        fill: none;
        stroke: #000;
        stroke-linecap: round;
        stroke-linejoin: round;
        stroke-width: 4px;
      }
    </style>
  </defs>
  <polyline class="cls-1" points="67.99 43.25 84 36.25 84 14 64 14 44 14 44 36.25 60.01 43.25"/>
  <g>
    <line class="cls-1" x1="54" y1="14" x2="54" y2="40"/>
    <line class="cls-1" x1="74" y1="14" x2="74" y2="40"/>
  </g>
  <rect class="cls-1" x="39" y="6" width="50" height="8"/>
  <path class="cls-1" d="M68.88,54.01c1.31-1.26,2.12-3.04,2.12-5.01,0-3.87-3.13-7-7-7s-7,3.13-7,7c0,1.97.81,3.75,2.12,5.01"/>
  <g>
    <path class="cls-1" d="M95.561662,87.004084c0-3.590284,2.785789-7.578717,1.733878-10.818323-1.090198-3.35752-5.724777-4.938437-7.758688-7.733121-2.05423-2.822604-2.139836-7.711472-4.962464-9.765672-2.794605-2.033807-7.46052-.617997-10.817917-1.708157-3.23961-1.051914-6.166182-4.974727-9.75647-4.974727s-6.516852,3.922812-9.756458,4.974723c-3.35752,1.090198-8.023555-.325524-10.818239,1.708386-2.822604,2.05423-2.908157,6.943098-4.962358,9.765726-2.033807,2.794605-6.66832,4.375431-7.75848,7.732828-1.051914,3.23961,1.733873,7.228048,1.733873,10.818337s-2.785789,7.578717-1.733878,10.818323c1.090198,3.35752,5.724777,4.938437,7.758688,7.733121,2.05423,2.822604,2.139836,7.711472,4.962464,9.765672,2.794605,2.033807,7.46052.617997,10.817917,1.708157,3.23961,1.051914,6.166182,4.974727,9.75647,4.974727s6.516852-3.922812,9.756458-4.974723c3.35752-1.090198,8.023555.325524,10.818239-1.708386,2.822604-2.05423,2.908157-6.943098,4.962358-9.765726,2.033807-2.794605,6.66832-4.375431,7.75848-7.732828,1.051914-3.23961-1.733873-7.228048-1.733873-10.818337Z"/>
    <path class="cls-1" d="M95.561662,87.004084c0-3.590284,2.785789-7.578717,1.733878-10.818323-1.090198-3.35752-5.724777-4.938437-7.758688-7.733121-2.05423-2.822604-2.139836-7.711472-4.962464-9.765672-2.794605-2.033807-7.46052-.617997-10.817917-1.708157-3.23961-1.051914-6.166182-4.974727-9.75647-4.974727s-6.516852,3.922812-9.756458,4.974723c-3.35752,1.090198-8.023555-.325524-10.818239,1.708386-2.822604,2.05423-2.908157,6.943098-4.962358,9.765726-2.033807,2.794605-6.66832,4.375431-7.75848,7.732828-1.051914,3.23961,1.733873,7.228048,1.733873,10.818337s-2.785789,7.578717-1.733878,10.818323c1.090198,3.35752,5.724777,4.938437,7.758688,7.733121,2.05423,2.822604,2.139836,7.711472,4.962464,9.765672,2.794605,2.033807,7.46052.617997,10.817917,1.708157,3.23961,1.051914,6.166182,4.974727,9.75647,4.974727s6.516852-3.922812,9.756458-4.974723c3.35752-1.090198,8.023555.325524,10.818239-1.708386,2.822604-2.05423,2.908157-6.943098,4.962358-9.765726,2.033807-2.794605,6.66832-4.375431,7.75848-7.732828,1.051914-3.23961-1.733873-7.228048-1.733873-10.818337Z"/>
  </g>
  <g>
    <path class="cls-1" d="M64,110.004084c-12.682172,0-23-10.317828-23-23s10.317828-23,23-23,23,10.317828,23,23-10.317828,23-23,23Z"/>
    <polygon class="cls-1" points="64 73.667331 68.113575 82.002345 77.311809 83.338926 70.655905 89.82683 72.22715 98.987896 64 94.662627 55.77285 98.987896 57.344095 89.82683 50.688191 83.338926 59.886425 82.002345 64 73.667331"/>
  </g>
</svg>