<?xml version="1.0" encoding="UTF-8"?>
<svg id="icon" xmlns="http://www.w3.org/2000/svg" viewBox="0 0 128 128">
  <defs>
    <style>
      .cls-1 {
        fill: none;
        stroke: #000;
        stroke-linecap: round;
        stroke-linejoin: round;
        stroke-width: 4px;
      }
    </style>
  </defs>
  <g>
    <path class="cls-1" d="M69.329325,6h3.982173c1.048347,0,2.020649.547245,2.564588,1.443437l15.41473,25.397266c1.366008,2.250631.222791,5.184338-2.305867,5.917282l-19.658252,5.698044"/>
    <line class="cls-1" x1="80.219829" y1="41.2986" x2="70.141664" y2="18.430323"/>
  </g>
  <path class="cls-1" d="M64.89,42.06l8.11-36.06h-18.31c-1.05,0-2.02.55-2.57,1.44l-15.41,25.4c-1.37,2.25-.22,5.19,2.31,5.92l19.66,5.7"/>
  <line class="cls-1" x1="47.780171" y1="41.2986" x2="63.336443" y2="6"/>
  <path class="cls-1" d="M70.05,52.52c.61-1.03.95-2.23.95-3.52,0-3.87-3.13-7-7-7s-7,3.13-7,7c0,1.29.34,2.49.95,3.52"/>
  <circle class="cls-1" cx="64" cy="87.002042" r="35.002042"/>
  <path class="cls-1" d="M64,114.003906c-14.888672,0-27.001953-12.112793-27.001953-27.001953s12.113281-27.001953,27.001953-27.001953,27.001953,12.112793,27.001953,27.001953-12.113281,27.001953-27.001953,27.001953Z"/>
  <polygon class="cls-1" points="64 71.3234 68.811256 81.072069 79.569551 82.63534 71.784775 90.223621 73.622512 100.938445 64 95.879591 54.377488 100.938445 56.215225 90.223621 48.430449 82.63534 59.188744 81.072069 64 71.3234"/>
</svg>