<?xml version="1.0" encoding="UTF-8"?>
<svg id="icon" xmlns="http://www.w3.org/2000/svg" viewBox="0 0 128 128">
  <defs>
    <style>
      .cls-1 {
        fill: none;
        stroke: #000;
        stroke-linecap: round;
        stroke-linejoin: round;
        stroke-width: 4px;
      }
    </style>
  </defs>
  <polyline class="cls-1" points="66.29 44 84 36.25 84 14 64 14 44 14 44 36.25 61.71 44"/>
  <g>
    <line class="cls-1" x1="54" y1="14" x2="54" y2="40"/>
    <line class="cls-1" x1="74" y1="14" x2="74" y2="40"/>
  </g>
  <rect class="cls-1" x="39" y="6" width="50" height="8"/>
  <path class="cls-1" d="M52,54.11v-6.11c0-2.21,1.79-4,4-4h16c2.21,0,4,1.79,4,4v6.11"/>
  <circle class="cls-1" cx="64" cy="87.002042" r="35.002042"/>
  <path class="cls-1" d="M64,114.003906c-14.888672,0-27.001953-12.112793-27.001953-27.001953s12.113281-27.001953,27.001953-27.001953,27.001953,12.112793,27.001953,27.001953-12.113281,27.001953-27.001953,27.001953Z"/>
  <polygon class="cls-1" points="64 71.3234 68.811256 81.072069 79.569551 82.63534 71.784775 90.223621 73.622512 100.938445 64 95.879591 54.377488 100.938445 56.215225 90.223621 48.430449 82.63534 59.188744 81.072069 64 71.3234"/>
</svg>